<svg xmlns="http://www.w3.org/2000/svg" width="375" viewBox="0 0 375 375" height="375" version="1.0"><defs><clipPath id="a"><path d="M 112.5 112.5 L 218 112.5 L 218 218 L 112.5 218 Z M 112.5 112.5"/></clipPath><clipPath id="b"><path d="M 206 208 L 262 208 L 262 262.5 L 206 262.5 Z M 206 208"/></clipPath></defs><g clip-path="url(#a)"><path fill="#717273" d="M 165.039062 129.769531 C 184.507812 129.769531 200.289062 145.546875 200.289062 165.007812 C 200.289062 184.484375 184.507812 200.273438 165.039062 200.273438 C 145.570312 200.273438 129.789062 184.484375 129.789062 165.007812 C 129.789062 145.546875 145.570312 129.769531 165.039062 129.769531 M 165.039062 112.5 C 136.082031 112.5 112.519531 136.0625 112.519531 165.007812 C 112.519531 193.972656 136.082031 217.523438 165.039062 217.523438 C 193.996094 217.523438 217.546875 193.972656 217.546875 165.007812 C 217.546875 136.0625 193.996094 112.5 165.039062 112.5 Z M 165.039062 112.5"/></g><g clip-path="url(#b)"><path fill="#717273" d="M 246.683594 262.488281 C 242.996094 262.488281 239.328125 261.085938 236.515625 258.273438 L 210.976562 232.726562 C 205.351562 227.113281 205.351562 218.019531 210.976562 212.382812 C 216.601562 206.765625 225.699219 206.765625 231.320312 212.382812 L 256.859375 237.929688 C 262.484375 243.550781 262.484375 252.652344 256.859375 258.273438 C 254.050781 261.085938 250.378906 262.488281 246.683594 262.488281 Z M 246.683594 262.488281"/></g><path fill="#717273" d="M 205.664062 194.878906 L 219.695312 208.902344 L 207.488281 221.117188 L 193.453125 207.09375 Z M 205.664062 194.878906"/></svg>